<?xml version="1.0" encoding="UTF-8" standalone="no"?>
<!-- Created with Inkscape (http://www.inkscape.org/) -->

<svg
   xmlns:dc="http://purl.org/dc/elements/1.1/"
   xmlns:cc="http://creativecommons.org/ns#"
   xmlns:rdf="http://www.w3.org/1999/02/22-rdf-syntax-ns#"
   xmlns:svg="http://www.w3.org/2000/svg"
   xmlns="http://www.w3.org/2000/svg"
   xmlns:sodipodi="http://sodipodi.sourceforge.net/DTD/sodipodi-0.dtd"
   xmlns:inkscape="http://www.inkscape.org/namespaces/inkscape"
   width="750mm"
   height="550mm"
   viewBox="0 0 2657.4803 1948.8188"
   id="svg2"
   version="1.1"
   inkscape:version="0.91 r13725"
   sodipodi:docname="RSPS-03.svg">
  <defs
     id="defs4" />
  <sodipodi:namedview
     id="base"
     pagecolor="#ffffff"
     bordercolor="#666666"
     borderopacity="1.0"
     inkscape:pageopacity="0.0"
     inkscape:pageshadow="2"
     inkscape:zoom="0.35"
     inkscape:cx="1975.5093"
     inkscape:cy="1100.7163"
     inkscape:document-units="mm"
     inkscape:current-layer="layer1"
     showgrid="false"
     inkscape:window-width="1920"
     inkscape:window-height="1056"
     inkscape:window-x="0"
     inkscape:window-y="24"
     inkscape:window-maximized="1"
     inkscape:object-paths="true"
     inkscape:object-nodes="true" />
  <metadata
     id="metadata7">
    <rdf:RDF>
      <cc:Work
         rdf:about="">
        <dc:format>image/svg+xml</dc:format>
        <dc:type
           rdf:resource="http://purl.org/dc/dcmitype/StillImage" />
        <dc:title />
      </cc:Work>
    </rdf:RDF>
  </metadata>
  <g
     inkscape:label="Layer 1"
     inkscape:groupmode="layer"
     id="layer1"
     transform="translate(0,896.45665)">
    <g
       id="g11322"
       transform="translate(-321.94605,182.32909)">
      <g
         transform="matrix(0,-1,1,0,1196.0491,3394.5833)"
         id="g6765">
        <g
           id="g6733"
           transform="matrix(0,-1,1,0,3594.9788,1278.0426)">
          <g
             transform="matrix(0,-1,1,0,1515.581,489.96043)"
             id="g6718">
            <path
               d="m 1205.2244,-642.83525 12.4025,0 0,21.26125 -12.4025,0 0,-21.26125 z"
               style="fill:none;stroke:#373535;stroke-width:1.25;stroke-linecap:butt;stroke-linejoin:miter;stroke-miterlimit:10;stroke-dasharray:none;stroke-opacity:1"
               id="path3453"
               inkscape:connector-curvature="0" />
            <path
               d="m 1205.2244,-713.7015 12.4025,0 0,21.26125 -12.4025,0 0,-21.26125 z"
               style="fill:none;stroke:#373535;stroke-width:1.25;stroke-linecap:butt;stroke-linejoin:miter;stroke-miterlimit:10;stroke-dasharray:none;stroke-opacity:1"
               id="path3455"
               inkscape:connector-curvature="0" />
            <path
               inkscape:connector-curvature="0"
               id="path3459"
               style="fill:none;stroke:#373535;stroke-width:1.25;stroke-linecap:butt;stroke-linejoin:miter;stroke-miterlimit:10;stroke-dasharray:none;stroke-opacity:1"
               d="m 1222.0586,-667.63887 c 0,5.87125 -4.7588,10.63 -10.63,10.63 -5.8713,0 -10.63,-4.75875 -10.63,-10.63 0,-5.87125 4.7587,-10.63 10.63,-10.63 5.8712,0 10.63,4.75875 10.63,10.63 z" />
          </g>
          <g
             id="g6725"
             transform="matrix(0,-1,1,0,1232.1162,489.96043)">
            <path
               inkscape:connector-curvature="0"
               id="path6727"
               style="fill:none;stroke:#373535;stroke-width:1.25;stroke-linecap:butt;stroke-linejoin:miter;stroke-miterlimit:10;stroke-dasharray:none;stroke-opacity:1"
               d="m 1205.2244,-642.83525 12.4025,0 0,21.26125 -12.4025,0 0,-21.26125 z" />
            <path
               inkscape:connector-curvature="0"
               id="path6729"
               style="fill:none;stroke:#373535;stroke-width:1.25;stroke-linecap:butt;stroke-linejoin:miter;stroke-miterlimit:10;stroke-dasharray:none;stroke-opacity:1"
               d="m 1205.2244,-713.7015 12.4025,0 0,21.26125 -12.4025,0 0,-21.26125 z" />
            <path
               d="m 1222.0586,-667.63887 c 0,5.87125 -4.7588,10.63 -10.63,10.63 -5.8713,0 -10.63,-4.75875 -10.63,-10.63 0,-5.87125 4.7587,-10.63 10.63,-10.63 5.8712,0 10.63,4.75875 10.63,10.63 z"
               style="fill:none;stroke:#373535;stroke-width:1.25;stroke-linecap:butt;stroke-linejoin:miter;stroke-miterlimit:10;stroke-dasharray:none;stroke-opacity:1"
               id="path6731"
               inkscape:connector-curvature="0" />
          </g>
        </g>
        <g
           transform="matrix(0,-1,1,0,4023.7193,1278.0426)"
           id="g6747">
          <g
             id="g6749"
             transform="matrix(0,-1,1,0,1515.581,489.96043)">
            <path
               inkscape:connector-curvature="0"
               id="path6751"
               style="fill:none;stroke:#373535;stroke-width:1.25;stroke-linecap:butt;stroke-linejoin:miter;stroke-miterlimit:10;stroke-dasharray:none;stroke-opacity:1"
               d="m 1205.2244,-642.83525 12.4025,0 0,21.26125 -12.4025,0 0,-21.26125 z" />
            <path
               inkscape:connector-curvature="0"
               id="path6753"
               style="fill:none;stroke:#373535;stroke-width:1.25;stroke-linecap:butt;stroke-linejoin:miter;stroke-miterlimit:10;stroke-dasharray:none;stroke-opacity:1"
               d="m 1205.2244,-713.7015 12.4025,0 0,21.26125 -12.4025,0 0,-21.26125 z" />
            <path
               d="m 1222.0586,-667.63887 c 0,5.87125 -4.7588,10.63 -10.63,10.63 -5.8713,0 -10.63,-4.75875 -10.63,-10.63 0,-5.87125 4.7587,-10.63 10.63,-10.63 5.8712,0 10.63,4.75875 10.63,10.63 z"
               style="fill:none;stroke:#373535;stroke-width:1.25;stroke-linecap:butt;stroke-linejoin:miter;stroke-miterlimit:10;stroke-dasharray:none;stroke-opacity:1"
               id="path6755"
               inkscape:connector-curvature="0" />
          </g>
          <g
             transform="matrix(0,-1,1,0,1232.1162,489.96043)"
             id="g6757">
            <path
               d="m 1205.2244,-642.83525 12.4025,0 0,21.26125 -12.4025,0 0,-21.26125 z"
               style="fill:none;stroke:#373535;stroke-width:1.25;stroke-linecap:butt;stroke-linejoin:miter;stroke-miterlimit:10;stroke-dasharray:none;stroke-opacity:1"
               id="path6759"
               inkscape:connector-curvature="0" />
            <path
               d="m 1205.2244,-713.7015 12.4025,0 0,21.26125 -12.4025,0 0,-21.26125 z"
               style="fill:none;stroke:#373535;stroke-width:1.25;stroke-linecap:butt;stroke-linejoin:miter;stroke-miterlimit:10;stroke-dasharray:none;stroke-opacity:1"
               id="path6761"
               inkscape:connector-curvature="0" />
            <path
               inkscape:connector-curvature="0"
               id="path6763"
               style="fill:none;stroke:#373535;stroke-width:1.25;stroke-linecap:butt;stroke-linejoin:miter;stroke-miterlimit:10;stroke-dasharray:none;stroke-opacity:1"
               d="m 1222.0586,-667.63887 c 0,5.87125 -4.7588,10.63 -10.63,10.63 -5.8713,0 -10.63,-4.75875 -10.63,-10.63 0,-5.87125 4.7587,-10.63 10.63,-10.63 5.8712,0 10.63,4.75875 10.63,10.63 z" />
          </g>
        </g>
      </g>
      <path
         sodipodi:nodetypes="sssssssss"
         inkscape:connector-curvature="0"
         id="rect6785"
         d="m 1440.125,32.096119 655.5118,0 c 19.6299,0 35.433,15.80315 35.433,35.43307 l 0,478.346461 c 0,19.62993 -15.8031,35.43308 -35.433,35.43308 l -655.5118,0 c -19.63,0 -35.4331,-15.80315 -35.4331,-35.43308 l 0,-478.346461 c 0,-19.62992 15.8031,-35.43307 35.4331,-35.43307 z"
         style="fill:none;fill-opacity:1;stroke:#000000;stroke-width:0.70866144;stroke-miterlimit:9.36252403;stroke-dasharray:none;stroke-opacity:1" />
      <g
         transform="translate(288.55111,33.089938)"
         id="g6792">
        <path
           id="path6788"
           d="m 1169.2904,114.16367 a 8.8582678,8.8582678 0 0 1 -8.8583,8.85827 8.8582678,8.8582678 0 0 1 -8.8582,-8.85827 8.8582678,8.8582678 0 0 1 8.8582,-8.85826 8.8582678,8.8582678 0 0 1 8.8583,8.85826 z"
           style="fill:none;fill-opacity:1;stroke:#000000;stroke-width:0.29592478;stroke-miterlimit:9.36252403;stroke-dasharray:none;stroke-opacity:1"
           inkscape:connector-curvature="0" />
        <path
           id="circle6790"
           d="m 1169.2904,149.59674 a 8.8582678,8.8582678 0 0 1 -8.8583,8.85827 8.8582678,8.8582678 0 0 1 -8.8582,-8.85827 8.8582678,8.8582678 0 0 1 8.8582,-8.85827 8.8582678,8.8582678 0 0 1 8.8583,8.85827 z"
           style="fill:none;fill-opacity:1;stroke:#000000;stroke-width:0.29592478;stroke-miterlimit:9.36252403;stroke-dasharray:none;stroke-opacity:1"
           inkscape:connector-curvature="0" />
      </g>
    </g>
    <g
       id="g11305"
       transform="translate(992.18477,-1204.5133)">
      <g
         id="g11262">
        <path
           d="m 1166.8364,650.72374 c -5.87,0 -10.63,-4.76125 -10.63,-10.63 0,-5.87125 4.76,-10.63 10.63,-10.63 5.87,0 10.63,4.75875 10.63,10.63 0,5.86875 -4.76,10.63 -10.63,10.63 z"
           style="fill:none;stroke:#292929;stroke-width:2;stroke-linecap:butt;stroke-linejoin:miter;stroke-miterlimit:4;stroke-dasharray:none;stroke-opacity:1"
           id="path11196"
           inkscape:connector-curvature="0" />
        <path
           d="m 1195.1828,905.84699 c -5.87,0 -10.63,-4.76 -10.63,-10.63 0,-5.87 4.76,-10.63 10.63,-10.63 5.87,0 10.63,4.76 10.63,10.63 0,5.87 -4.76,10.63 -10.63,10.63 z"
           style="fill:none;stroke:#292929;stroke-width:2;stroke-linecap:butt;stroke-linejoin:miter;stroke-miterlimit:4;stroke-dasharray:none;stroke-opacity:1"
           id="path11198"
           inkscape:connector-curvature="0" />
        <path
           d="m 1379.4352,650.72374 c -5.87,0 -10.63,-4.76125 -10.63,-10.63 0,-5.87125 4.76,-10.63 10.63,-10.63 5.87,0 10.63,4.75875 10.63,10.63 0,5.86875 -4.76,10.63 -10.63,10.63 z"
           style="fill:none;stroke:#292929;stroke-width:2;stroke-linecap:butt;stroke-linejoin:miter;stroke-miterlimit:4;stroke-dasharray:none;stroke-opacity:1"
           id="path11200"
           inkscape:connector-curvature="0" />
        <path
           d="m 1351.0888,905.84699 c -5.87,0 -10.63,-4.76 -10.63,-10.63 0,-5.87 4.76,-10.63 10.63,-10.63 5.87,0 10.63,4.76 10.63,10.63 0,5.87 -4.76,10.63 -10.63,10.63 z"
           style="fill:none;stroke:#292929;stroke-width:2;stroke-linecap:butt;stroke-linejoin:miter;stroke-miterlimit:4;stroke-dasharray:none;stroke-opacity:1"
           id="path11202"
           inkscape:connector-curvature="0" />
        <path
           d="m 1432.5865,895.21711 c 0,9.78375 -7.9313,17.71625 -17.7163,17.71625 l -283.4637,0 c -9.7838,0 -17.7163,-7.9325 -17.7163,-17.71625 l 0,-255.12375 c 0,-9.785 7.9325,-17.71625 17.7163,-17.71625 l 283.4637,0 c 9.785,0 17.7163,7.93125 17.7163,17.71625 l 0,255.12375 z"
           style="fill:none;stroke:#000000;stroke-width:0.27000001;stroke-linecap:butt;stroke-linejoin:miter;stroke-miterlimit:2.61299992;stroke-dasharray:none;stroke-opacity:1"
           id="path11204"
           inkscape:connector-curvature="0" />
        <path
           d="m 1429.044,866.86624 c 0,3.91375 -3.1725,7.0875 -7.0875,7.0875 l -297.6375,0 c -3.9138,0 -7.0863,-3.17375 -7.0863,-7.0875 l 0,-198.425 c 0,-3.91375 3.1725,-7.08625 7.0863,-7.08625 l 297.6375,0 c 3.915,0 7.0875,3.1725 7.0875,7.08625 l 0,198.425 z"
           style="fill:none;stroke:#4bff26;stroke-width:2;stroke-linecap:butt;stroke-linejoin:miter;stroke-miterlimit:4;stroke-dasharray:none;stroke-opacity:1"
           id="path11206"
           inkscape:connector-curvature="0" />
        <g
           id="g11253"
           transform="matrix(0,-1,1,0,560.7761,2401.9401)">
          <path
             d="m 1580.311,850.63463 c 2.935,0 5.315,-2.3775 5.315,-5.315 0,-2.935 -2.38,-5.315 -5.315,-5.315 -2.935,0 -5.315,2.38 -5.315,5.315 0,2.9375 2.38,5.315 5.315,5.315 z"
             style="fill:none;stroke:#373535;stroke-width:1.25;stroke-linecap:butt;stroke-linejoin:miter;stroke-miterlimit:10;stroke-dasharray:none;stroke-opacity:1"
             id="path3373"
             inkscape:connector-curvature="0" />
          <path
             d="m 1670.3133,657.5035 c 2.9363,0 5.315,-2.38 5.315,-5.315 0,-2.935 -2.3787,-5.315 -5.315,-5.315 -2.935,0 -5.315,2.38 -5.315,5.315 0,2.935 2.38,5.315 5.315,5.315 z"
             style="fill:none;stroke:#373535;stroke-width:1.25;stroke-linecap:butt;stroke-linejoin:miter;stroke-miterlimit:10;stroke-dasharray:none;stroke-opacity:1"
             id="path3377"
             inkscape:connector-curvature="0" />
          <path
             inkscape:connector-curvature="0"
             id="path3379"
             style="fill:none;stroke:#f58735;stroke-width:0.27000001;stroke-linecap:butt;stroke-linejoin:miter;stroke-miterlimit:2.61299992;stroke-dasharray:none;stroke-opacity:1"
             d="m 1732.8138,561.88975 -197.0562,0 0,300.945 197.0562,0 0,-300.945 z" />
          <path
             d="m 1715.7821,574.32 c 0,2.93625 2.3787,5.315 5.315,5.315 2.9362,0 5.315,-2.37875 5.315,-5.315 0,-2.935 -2.3788,-5.315 -5.315,-5.315 -2.9363,0 -5.315,2.38 -5.315,5.315 z"
             style="fill:none;stroke:#373535;stroke-width:1.25;stroke-linecap:butt;stroke-linejoin:miter;stroke-miterlimit:10;stroke-dasharray:none;stroke-opacity:1"
             id="path3383"
             inkscape:connector-curvature="0" />
          <path
             d="m 1542.1591,574.32 c 0,2.93625 2.3787,5.315 5.315,5.315 2.9362,0 5.315,-2.37875 5.315,-5.315 0,-2.935 -2.3788,-5.315 -5.315,-5.315 -2.9363,0 -5.315,2.38 -5.315,5.315 z"
             style="fill:none;stroke:#373535;stroke-width:1.25;stroke-linecap:butt;stroke-linejoin:miter;stroke-miterlimit:10;stroke-dasharray:none;stroke-opacity:1"
             id="path3387"
             inkscape:connector-curvature="0" />
          <path
             d="m 1715.7821,779.84 c 0,2.93625 2.3787,5.31375 5.315,5.31375 2.9362,0 5.315,-2.3775 5.315,-5.31375 0,-2.935 -2.3788,-5.315 -5.315,-5.315 -2.9363,0 -5.315,2.38 -5.315,5.315 z"
             style="fill:none;stroke:#373535;stroke-width:1.25;stroke-linecap:butt;stroke-linejoin:miter;stroke-miterlimit:10;stroke-dasharray:none;stroke-opacity:1"
             id="path3391"
             inkscape:connector-curvature="0" />
          <path
             d="m 1542.1591,779.84 c 0,2.93625 2.3787,5.31375 5.315,5.31375 2.9362,0 5.315,-2.3775 5.315,-5.31375 0,-2.935 -2.3788,-5.315 -5.315,-5.315 -2.9363,0 -5.315,2.38 -5.315,5.315 z"
             style="fill:none;stroke:#373535;stroke-width:1.25;stroke-linecap:butt;stroke-linejoin:miter;stroke-miterlimit:10;stroke-dasharray:none;stroke-opacity:1"
             id="path3395"
             inkscape:connector-curvature="0" />
        </g>
      </g>
    </g>
    <g
       id="g3494">
      <path
         d="m 1235.1448,-116.61551 0,-645.76699 c 0,-11.8888 9.6363,-21.525 21.5263,-21.525 l 351.585,0 c 11.8875,0 21.525,9.6362 21.525,21.525 l 0,645.76699 c 0,11.88875 -9.6375,21.52625 -21.525,21.52625 l -351.585,0 c -11.89,0 -21.5263,-9.6375 -21.5263,-21.52625 z"
         style="fill:none;stroke:#00ff00;stroke-width:0.27000001;stroke-linecap:butt;stroke-linejoin:miter;stroke-miterlimit:2.61299992;stroke-dasharray:none;stroke-opacity:1"
         id="path3353"
         inkscape:connector-curvature="0" />
      <path
         d="m 1321.1293,-215.60595 c 3.1288,0 5.6688,2.535 5.6688,5.6662 0,3.1313 -2.5338,5.67 -5.6638,5.6725 l -0,0 c -3.1312,10e-4 -5.6687,-2.5362 -5.6712,-5.6662 0,-3.1325 2.535,-5.6713 5.6662,-5.6725 l 0.01,0 z"
         style="fill:none;stroke:#000000;stroke-width:0.78125;stroke-linecap:butt;stroke-linejoin:miter;stroke-miterlimit:4;stroke-dasharray:none;stroke-opacity:1"
         id="path3357"
         inkscape:connector-curvature="0" />
      <path
         d="m 1321.1293,-662.32689 c 3.1288,0 5.6688,2.5338 5.6688,5.6663 0,3.1325 -2.5338,5.6712 -5.6638,5.6725 l -0,0 c -3.13,0 -5.6687,-2.535 -5.6712,-5.6675 0,-3.1313 2.535,-5.6713 5.6662,-5.6713 l 0.01,0 z"
         style="fill:none;stroke:#000000;stroke-width:0.78125;stroke-linecap:butt;stroke-linejoin:miter;stroke-miterlimit:4;stroke-dasharray:none;stroke-opacity:1"
         id="path3361"
         inkscape:connector-curvature="0" />
      <path
         d="m 1552.7321,-215.60595 c 3.13,0 5.6675,2.535 5.67,5.6662 10e-4,3.1313 -2.535,5.67 -5.665,5.6725 l -0.01,0 c -3.13,10e-4 -5.6688,-2.5362 -5.67,-5.6662 -0,-3.1325 2.5337,-5.6713 5.665,-5.6725 l 0,0 z"
         style="fill:none;stroke:#000000;stroke-width:0.78125;stroke-linecap:butt;stroke-linejoin:miter;stroke-miterlimit:4;stroke-dasharray:none;stroke-opacity:1"
         id="path3365"
         inkscape:connector-curvature="0" />
      <path
         d="m 1552.7321,-662.32689 c 3.1287,0 5.6675,2.5338 5.67,5.6663 10e-4,3.1325 -2.535,5.6712 -5.665,5.6725 l -0.01,0 c -3.13,0 -5.6688,-2.535 -5.67,-5.6675 -0,-3.1313 2.5337,-5.6713 5.665,-5.6713 l 0,0 z"
         style="fill:none;stroke:#000000;stroke-width:0.78125;stroke-linecap:butt;stroke-linejoin:miter;stroke-miterlimit:4;stroke-dasharray:none;stroke-opacity:1"
         id="path3369"
         inkscape:connector-curvature="0" />
      <path
         d="m 1301.1573,-613.12272 0,95.66741 c -5.87,0 -10.63,4.7587 -10.63,10.63 l 0,106.29861 c 0,5.8713 4.76,10.63 10.63,10.63 l 0,95.67121 c 0,9.7837 7.9325,17.7162 17.7175,17.7162 l 88.58,0 0,31.88997 c 0,5.8713 4.76,10.62997 10.63,10.62997 l 56.6925,0 c 5.8713,0 10.63,-4.75867 10.63,-10.62997 l 0,-31.88997 46.065,0 c 9.785,0 17.7163,-7.9325 17.7163,-17.7162 l 0,-24.68247 46.0612,0 c 5.8713,0 10.63,-4.76 10.63,-10.63 l 0,-38.97627 c 0,-5.8712 -4.7587,-10.62997 -10.63,-10.62997 l -46.0612,0 0,-233.97852 c 0,-9.785 -7.9313,-17.71747 -17.7163,-17.71747 l -212.5975,0 c -9.785,0 -17.7175,7.93247 -17.7175,17.71747 z"
         style="fill:none;stroke:#000000;stroke-width:0.78125;stroke-linecap:butt;stroke-linejoin:miter;stroke-miterlimit:4;stroke-dasharray:none;stroke-opacity:1"
         id="path3575"
         inkscape:connector-curvature="0" />
      <path
         inkscape:connector-curvature="0"
         id="path3671"
         style="fill:none;stroke:#ff0000;stroke-width:1.25;stroke-linecap:butt;stroke-linejoin:miter;stroke-miterlimit:10;stroke-dasharray:none;stroke-opacity:1"
         d="m 1232.5716,-395.2104 0,-88.58244 -85.04,0 0,88.58244 85.04,0 z" />
      <path
         d="m 1199.2605,-472.27684 c 1.9575,0 3.5425,-1.5863 3.5425,-3.5425 0,-1.9563 -1.585,-3.5438 -3.5425,-3.5438 -1.9575,0 -3.5425,1.5875 -3.5425,3.5438 0,1.9562 1.585,3.5425 3.5425,3.5425 z"
         style="fill:none;stroke:#000000;stroke-width:1.25;stroke-linecap:butt;stroke-linejoin:miter;stroke-miterlimit:10;stroke-dasharray:none;stroke-opacity:1"
         id="path3675"
         inkscape:connector-curvature="0" />
      <path
         d="m 1199.2605,-399.6391 c 1.9575,0 3.5425,-1.5875 3.5425,-3.5425 0,-1.9575 -1.585,-3.545 -3.5425,-3.545 -1.9575,0 -3.5425,1.5875 -3.5425,3.545 0,1.955 1.585,3.5425 3.5425,3.5425 z"
         style="fill:none;stroke:#000000;stroke-width:1.25;stroke-linecap:butt;stroke-linejoin:miter;stroke-miterlimit:10;stroke-dasharray:none;stroke-opacity:1"
         id="path3679"
         inkscape:connector-curvature="0" />
      <path
         d="m 1154.9685,-472.27684 c 1.9575,0 3.545,-1.5863 3.545,-3.5425 0,-1.9563 -1.5875,-3.5438 -3.545,-3.5438 -1.955,0 -3.5425,1.5875 -3.5425,3.5438 0,1.9562 1.5875,3.5425 3.5425,3.5425 z"
         style="fill:none;stroke:#000000;stroke-width:1.25;stroke-linecap:butt;stroke-linejoin:miter;stroke-miterlimit:10;stroke-dasharray:none;stroke-opacity:1"
         id="path3683"
         inkscape:connector-curvature="0" />
      <path
         d="m 1154.9685,-399.6391 c 1.9575,0 3.545,-1.5875 3.545,-3.5425 0,-1.9575 -1.5875,-3.545 -3.545,-3.545 -1.955,0 -3.5425,1.5875 -3.5425,3.545 0,1.955 1.5875,3.5425 3.5425,3.5425 z"
         style="fill:none;stroke:#000000;stroke-width:1.25;stroke-linecap:butt;stroke-linejoin:miter;stroke-miterlimit:10;stroke-dasharray:none;stroke-opacity:1"
         id="path3687"
         inkscape:connector-curvature="0" />
      <path
         d="m 1207.7681,-453.67464 -24.8038,0 0,28.34877 24.8038,0 0,23.02997 53.1487,0 0,-74.41124 -53.1487,0 0,23.0325 z"
         style="fill:none;stroke:#000000;stroke-width:0.78125;stroke-linecap:butt;stroke-linejoin:miter;stroke-miterlimit:4;stroke-dasharray:none;stroke-opacity:1"
         id="path3691"
         inkscape:connector-curvature="0" />
      <path
         id="rect4237"
         d="m 1892.2266,-368.63264 0,-141.73229 c 0,-9.81496 7.9016,-17.71654 17.7165,-17.71654 l 70.8661,0 c 9.815,0 17.7166,7.90158 17.7166,17.71654 l 0,141.73229 c 0,9.81496 -7.9016,17.71653 -17.7166,17.71653 l -70.8661,0 c -9.8149,0 -17.7165,-7.90157 -17.7165,-17.71653 z"
         style="fill:none;fill-opacity:1;stroke:#00ff00;stroke-width:0.70866144;stroke-miterlimit:9.36252403;stroke-dasharray:none;stroke-opacity:1"
         inkscape:connector-curvature="0" />
      <path
         sodipodi:nodetypes="ssssccccccccccccccccccccccccccccccccccccccccccccccssssccccccccccccccccccccccccccccccccccccccccccs"
         inkscape:connector-curvature="0"
         id="rect4247"
         d="m 1874.5097,-687.52911 c 0,9.7837 -7.933,17.71484 -17.7168,17.71484 l -173.6213,0 c -9.785,0 -17.7168,-7.93113 -17.7168,-17.71484 l 0,-97.40509 c 0,-9.7474 -7.932,-17.6794 -17.7165,-17.7165 l -532.0942,-0.037 -3.5449,0 -842.75975,0 0.008,162.9902 0,12.62304 -10.62891,0 0,20.81641 10.62891,0 0,14.17578 17.71485,0 0,-7.08594 21.25976,0 0,35.42969 -21.25976,0 0,-7.08594 -17.7168,0 0,14.17383 -10.63086,0 0,21.25977 10.6289,0 0,12.625 0,166.53515 0,12.6211 -10.63085,0 0,20.82031 10.63085,0 0,14.17383 17.71485,0 0,-7.08399 21.25977,0 0,35.42774 -21.25977,0 0,-7.08789 -17.71875,0 0,14.17578 -10.62891,0 0,21.25976 10.62696,0 0,12.625 0.002,162.99024 842.75981,0 3.5449,0 532.0941,0 c 9.7845,0 17.7165,-7.93197 17.7165,-17.71654 l 3e-4,-97.44219 c 0,-9.785 7.9318,-17.71679 17.7168,-17.71679 l 173.6213,0 c 9.7838,0 17.7168,7.93179 17.7168,17.71679 l 0,97.44219 c 0,9.78458 7.932,17.71654 17.7165,17.71654 l 176.5663,0 -0.01,-162.99024 0,-12.62304 10.6308,0 0,-20.81641 -10.6308,0 0,-14.17578 -17.7149,0 0,7.08594 -21.2597,0 0,-35.42969 21.2597,0 0,7.08594 17.7167,0 0,-14.17383 10.631,0 0,-21.25977 -10.627,0 0,-12.625 0,-166.53515 0,-12.6211 10.6289,0 0,-20.82031 -10.6289,0 0,-14.17383 -17.7148,0 0,7.08399 -21.2617,0 0,-35.42774 21.2617,0 0,7.08789 17.7168,0 0,-14.17578 10.6307,0 0,-21.25976 -10.6288,0 0,-12.625 0,-162.9902 -176.5664,0 c -9.7845,0 -17.7165,7.932 -17.7165,17.7165 z"
         style="fill:none;fill-opacity:1;stroke:#000000;stroke-width:0.70866144;stroke-miterlimit:9.36252403;stroke-dasharray:none;stroke-opacity:1" />
      <path
         inkscape:connector-curvature="0"
         id="path5051"
         d="m 1962.4922,-76.30942 0,-726.37788"
         style="fill:none;fill-rule:evenodd;stroke:#00ff00;stroke-width:1px;stroke-linecap:butt;stroke-linejoin:miter;stroke-opacity:1" />
      <path
         style="fill:none;fill-rule:evenodd;stroke:#00ff00;stroke-width:1px;stroke-linecap:butt;stroke-linejoin:miter;stroke-opacity:1"
         d="m 1112.0985,-76.30942 0,-726.37788"
         id="path5128"
         inkscape:connector-curvature="0" />
      <g
         transform="matrix(0,-1,1,0,1074.9647,266.7106)"
         id="g11283">
        <path
           inkscape:connector-curvature="0"
           id="path8695"
           style="fill:none;stroke:#292929;stroke-width:2;stroke-linecap:butt;stroke-linejoin:miter;stroke-miterlimit:4;stroke-dasharray:none;stroke-opacity:1"
           d="m 599.90725,579.8576 c -5.87,0 -10.63,-4.76125 -10.63,-10.63 0,-5.87125 4.76,-10.63 10.63,-10.63 5.87,0 10.63,4.75875 10.63,10.63 0,5.86875 -4.76,10.63 -10.63,10.63 z" />
        <path
           inkscape:connector-curvature="0"
           id="path8699"
           style="fill:none;stroke:#292929;stroke-width:2;stroke-linecap:butt;stroke-linejoin:miter;stroke-miterlimit:4;stroke-dasharray:none;stroke-opacity:1"
           d="m 628.25373,834.98085 c -5.87,0 -10.63,-4.76 -10.63,-10.63 0,-5.87 4.76,-10.63 10.63,-10.63 5.87,0 10.63,4.76 10.63,10.63 0,5.87 -4.76,10.63 -10.63,10.63 z" />
        <path
           inkscape:connector-curvature="0"
           id="path8703"
           style="fill:none;stroke:#292929;stroke-width:2;stroke-linecap:butt;stroke-linejoin:miter;stroke-miterlimit:4;stroke-dasharray:none;stroke-opacity:1"
           d="m 812.50605,579.8576 c -5.87,0 -10.63,-4.76125 -10.63,-10.63 0,-5.87125 4.76,-10.63 10.63,-10.63 5.87,0 10.63,4.75875 10.63,10.63 0,5.86875 -4.76,10.63 -10.63,10.63 z" />
        <path
           inkscape:connector-curvature="0"
           id="path8707"
           style="fill:none;stroke:#292929;stroke-width:2;stroke-linecap:butt;stroke-linejoin:miter;stroke-miterlimit:4;stroke-dasharray:none;stroke-opacity:1"
           d="m 784.15957,834.98085 c -5.87,0 -10.63,-4.76 -10.63,-10.63 0,-5.87 4.76,-10.63 10.63,-10.63 5.87,0 10.63,4.76 10.63,10.63 0,5.87 -4.76,10.63 -10.63,10.63 z" />
        <path
           inkscape:connector-curvature="0"
           id="path8711"
           style="fill:none;stroke:#00ff00;stroke-width:0.27000001;stroke-linecap:butt;stroke-linejoin:miter;stroke-miterlimit:2.61299992;stroke-dasharray:none;stroke-opacity:1"
           d="m 865.65735,824.35097 c 0,9.78375 -7.9313,17.71625 -17.7163,17.71625 l -283.4637,0 c -9.7838,0 -17.7163,-7.9325 -17.7163,-17.71625 l 0,-255.12375 c 0,-9.785 7.9325,-17.71625 17.7163,-17.71625 l 283.4637,0 c 9.785,0 17.7163,7.93125 17.7163,17.71625 l 0,255.12375 z" />
        <path
           inkscape:connector-curvature="0"
           id="path8715"
           style="fill:none;stroke:#4b2c26;stroke-width:2;stroke-linecap:butt;stroke-linejoin:miter;stroke-miterlimit:4;stroke-dasharray:none;stroke-opacity:1"
           d="m 862.11485,796.0001 c 0,3.91375 -3.1725,7.0875 -7.0875,7.0875 l -297.6375,0 c -3.9138,0 -7.0863,-3.17375 -7.0863,-7.0875 l 0,-198.425 c 0,-3.91375 3.1725,-7.08625 7.0863,-7.08625 l 297.6375,0 c 3.915,0 7.0875,3.1725 7.0875,7.08625 l 0,198.425 z" />
      </g>
      <g
         transform="matrix(0,-1,1,0,1071.4214,266.7106)"
         id="g11295">
        <path
           style="fill:none;fill-rule:evenodd;stroke:#ff0000;stroke-width:0.7015394px;stroke-linecap:butt;stroke-linejoin:miter;stroke-opacity:1"
           d="m 343.02002,891.0708 7.08661,0"
           id="path11291"
           inkscape:connector-curvature="0" />
        <path
           inkscape:connector-curvature="0"
           id="path11293"
           d="m 1062.3113,891.0708 7.0866,0"
           style="fill:none;fill-rule:evenodd;stroke:#ff0000;stroke-width:0.7015394px;stroke-linecap:butt;stroke-linejoin:miter;stroke-opacity:1" />
      </g>
      <g
         transform="matrix(0,-1,1,0,221.02772,266.7106)"
         id="g11299">
        <path
           inkscape:connector-curvature="0"
           id="path11301"
           d="m 343.02002,891.0708 7.08661,0"
           style="fill:none;fill-rule:evenodd;stroke:#ff0000;stroke-width:0.7015394px;stroke-linecap:butt;stroke-linejoin:miter;stroke-opacity:1" />
        <path
           style="fill:none;fill-rule:evenodd;stroke:#ff0000;stroke-width:0.7015394px;stroke-linecap:butt;stroke-linejoin:miter;stroke-opacity:1"
           d="m 1062.3113,891.0708 7.0866,0"
           id="path11303"
           inkscape:connector-curvature="0" />
      </g>
    </g>
  </g>
</svg>
